<svg width="990" height="52" xmlns="http://www.w3.org/2000/svg" xmlns:xlink="http://www.w3.org/1999/xlink" overflow="hidden"><defs><clipPath id="clip0"><path d="M101 159 1091 159 1091 211 101 211Z" fill-rule="evenodd" clip-rule="evenodd"/></clipPath></defs><g clip-path="url(#clip0)" transform="translate(-101 -159)"><path d="M103.5 203.375C103.5 199.993 106.242 197.25 109.625 197.25L109.625 203.375C109.625 201.684 110.996 200.313 112.687 200.313 114.379 200.313 115.75 201.684 115.75 203.375L115.75 197.25 1083.38 197.25C1086.76 197.25 1089.5 194.508 1089.5 191.125L1089.5 166.625C1089.5 163.242 1086.76 160.5 1083.38 160.5 1079.99 160.5 1077.25 163.242 1077.25 166.625L1077.25 172.75 109.625 172.75C106.242 172.75 103.5 175.492 103.5 178.875ZM1083.38 185C1079.99 185 1077.25 187.742 1077.25 191.124 1077.25 192.816 1078.62 194.187 1080.31 194.187 1082 194.187 1083.38 192.816 1083.38 191.124Z" fill="#C55A11" fill-rule="evenodd"/><path d="M1083.38 185C1079.99 185 1077.25 187.742 1077.25 191.124 1077.25 192.816 1078.62 194.187 1080.31 194.187 1082 194.187 1083.38 192.816 1083.38 191.124ZM109.625 197.25C106.242 197.25 103.5 199.993 103.5 203.375 103.5 206.758 106.242 209.5 109.625 209.5 113.007 209.5 115.75 206.758 115.75 203.375 115.75 201.684 114.379 200.313 112.687 200.313 110.996 200.313 109.625 201.684 109.625 203.375Z" fill="#9E480E" fill-rule="evenodd"/><path d="M1089.5 191.125C1089.5 194.508 1086.76 197.25 1083.38 197.25L115.75 197.25 115.75 203.375C115.75 206.758 113.007 209.5 109.625 209.5 106.242 209.5 103.5 206.758 103.5 203.375L103.5 178.875C103.5 175.492 106.242 172.75 109.625 172.75L1077.25 172.75 1077.25 166.625C1077.25 163.242 1079.99 160.5 1083.38 160.5 1086.76 160.5 1089.5 163.242 1089.5 166.625ZM115.75 197.25 109.625 197.25C106.242 197.25 103.5 199.993 103.5 203.375M109.625 197.25 109.625 203.375C109.625 201.684 110.996 200.313 112.687 200.313 114.379 200.313 115.75 201.684 115.75 203.375M1083.38 185 1083.38 191.125C1083.38 192.817 1082 194.188 1080.31 194.188 1078.62 194.188 1077.25 192.817 1077.25 191.125 1077.25 187.743 1079.99 185.001 1083.38 185.001 1086.76 185.001 1089.5 187.743 1089.5 191.125M1077.25 191.125 1077.25 172.75" stroke="#002060" stroke-width="1.33333" stroke-miterlimit="8" fill="none" fill-rule="evenodd"/></g></svg>