<svg width="234" height="64" xmlns="http://www.w3.org/2000/svg" xmlns:xlink="http://www.w3.org/1999/xlink" overflow="hidden"><defs><clipPath id="clip0"><path d="M101 159 335 159 335 223 101 223Z" fill-rule="evenodd" clip-rule="evenodd"/></clipPath></defs><g clip-path="url(#clip0)" transform="translate(-101 -159)"><path d="M103.5 213.875C103.5 209.664 106.914 206.25 111.125 206.25L111.125 213.875C111.125 211.77 112.832 210.063 114.937 210.063 117.043 210.063 118.75 211.77 118.75 213.875L118.75 206.25 325.875 206.25C330.086 206.25 333.5 202.836 333.5 198.625L333.5 168.125C333.5 163.914 330.086 160.5 325.875 160.5 321.664 160.5 318.25 163.914 318.25 168.125L318.25 175.75 111.125 175.75C106.914 175.75 103.5 179.164 103.5 183.375ZM325.875 191C321.664 191 318.25 194.414 318.25 198.625 318.25 200.731 319.957 202.437 322.063 202.437 324.168 202.437 325.875 200.731 325.875 198.625Z" fill="#C55A11" fill-rule="evenodd"/><path d="M325.875 191C321.664 191 318.25 194.414 318.25 198.625 318.25 200.731 319.957 202.437 322.063 202.437 324.168 202.437 325.875 200.731 325.875 198.625ZM111.125 206.25C106.914 206.25 103.5 209.664 103.5 213.875 103.5 218.086 106.914 221.5 111.125 221.5 115.336 221.5 118.75 218.086 118.75 213.875 118.75 211.769 117.043 210.062 114.937 210.062 112.832 210.062 111.125 211.769 111.125 213.875Z" fill="#9E480E" fill-rule="evenodd"/><path d="M333.5 198.625C333.5 202.836 330.086 206.25 325.875 206.25L118.75 206.25 118.75 213.875C118.75 218.086 115.336 221.5 111.125 221.5 106.914 221.5 103.5 218.086 103.5 213.875L103.5 183.375C103.5 179.164 106.914 175.75 111.125 175.75L318.25 175.75 318.25 168.125C318.25 163.914 321.664 160.5 325.875 160.5 330.086 160.5 333.5 163.914 333.5 168.125ZM118.75 206.25 111.125 206.25C106.914 206.25 103.5 209.664 103.5 213.875M111.125 206.25 111.125 213.875C111.125 211.77 112.832 210.063 114.937 210.063 117.043 210.063 118.75 211.77 118.75 213.875M325.875 191 325.875 198.625C325.875 200.731 324.168 202.437 322.063 202.437 319.957 202.437 318.25 200.731 318.25 198.625 318.25 194.414 321.664 191 325.875 191 330.086 191 333.5 194.414 333.5 198.625M318.25 198.625 318.25 175.75" stroke="#002060" stroke-width="1.33333" stroke-miterlimit="8" fill="none" fill-rule="evenodd"/></g></svg>